<mxfile host="app.diagrams.net" modified="2021-08-09T12:48:28.737Z" agent="5.0 (Windows NT 6.1; Win64; x64) AppleWebKit/537.36 (KHTML, like Gecko) Chrome/92.0.4515.131 Safari/537.36" etag="sfgEmQJqG84wmZgiFDf7" version="14.9.5" type="github">
  <diagram id="N-OCa6IxtJTxG20kBbQU" name="Page-1">
    <mxGraphModel dx="868" dy="450" grid="1" gridSize="10" guides="1" tooltips="1" connect="1" arrows="1" fold="1" page="1" pageScale="1" pageWidth="850" pageHeight="1100" math="0" shadow="0">
      <root>
        <mxCell id="0" />
        <mxCell id="1" parent="0" />
        <mxCell id="-ugeKJobIYedR1QDNW9z-1" value="SendController" style="rounded=1;whiteSpace=wrap;html=1;" vertex="1" parent="1">
          <mxGeometry x="280" y="200" width="120" height="60" as="geometry" />
        </mxCell>
        <mxCell id="-ugeKJobIYedR1QDNW9z-35" style="edgeStyle=orthogonalEdgeStyle;rounded=0;orthogonalLoop=1;jettySize=auto;html=1;exitX=1;exitY=0.5;exitDx=0;exitDy=0;entryX=0;entryY=0;entryDx=0;entryDy=37.5;entryPerimeter=0;" edge="1" parent="1" source="-ugeKJobIYedR1QDNW9z-2" target="-ugeKJobIYedR1QDNW9z-30">
          <mxGeometry relative="1" as="geometry" />
        </mxCell>
        <mxCell id="-ugeKJobIYedR1QDNW9z-2" value="SEPA" style="rounded=1;whiteSpace=wrap;html=1;" vertex="1" parent="1">
          <mxGeometry x="520" y="80" width="80" height="60" as="geometry" />
        </mxCell>
        <mxCell id="-ugeKJobIYedR1QDNW9z-33" style="edgeStyle=orthogonalEdgeStyle;rounded=0;orthogonalLoop=1;jettySize=auto;html=1;exitX=1;exitY=0.5;exitDx=0;exitDy=0;entryX=0;entryY=1;entryDx=0;entryDy=-15;entryPerimeter=0;" edge="1" parent="1" source="-ugeKJobIYedR1QDNW9z-3" target="-ugeKJobIYedR1QDNW9z-31">
          <mxGeometry relative="1" as="geometry" />
        </mxCell>
        <mxCell id="-ugeKJobIYedR1QDNW9z-3" value="NTT" style="rounded=1;whiteSpace=wrap;html=1;" vertex="1" parent="1">
          <mxGeometry x="520" y="200" width="90" height="60" as="geometry" />
        </mxCell>
        <mxCell id="-ugeKJobIYedR1QDNW9z-34" style="edgeStyle=orthogonalEdgeStyle;rounded=0;orthogonalLoop=1;jettySize=auto;html=1;exitX=1;exitY=0.5;exitDx=0;exitDy=0;entryX=0;entryY=0;entryDx=0;entryDy=37.5;entryPerimeter=0;" edge="1" parent="1" source="-ugeKJobIYedR1QDNW9z-4" target="-ugeKJobIYedR1QDNW9z-32">
          <mxGeometry relative="1" as="geometry" />
        </mxCell>
        <mxCell id="-ugeKJobIYedR1QDNW9z-4" value="LANKAPAY" style="rounded=1;whiteSpace=wrap;html=1;" vertex="1" parent="1">
          <mxGeometry x="520" y="320" width="90" height="60" as="geometry" />
        </mxCell>
        <mxCell id="-ugeKJobIYedR1QDNW9z-24" style="edgeStyle=orthogonalEdgeStyle;rounded=0;orthogonalLoop=1;jettySize=auto;html=1;exitX=1;exitY=0.5;exitDx=0;exitDy=0;entryX=0;entryY=0.5;entryDx=0;entryDy=0;" edge="1" parent="1" source="-ugeKJobIYedR1QDNW9z-5" target="-ugeKJobIYedR1QDNW9z-1">
          <mxGeometry relative="1" as="geometry" />
        </mxCell>
        <mxCell id="-ugeKJobIYedR1QDNW9z-5" value="LB" style="ellipse;whiteSpace=wrap;html=1;aspect=fixed;" vertex="1" parent="1">
          <mxGeometry x="180" y="209" width="50" height="50" as="geometry" />
        </mxCell>
        <mxCell id="-ugeKJobIYedR1QDNW9z-25" value="" style="endArrow=none;html=1;entryX=0;entryY=0.5;entryDx=0;entryDy=0;exitX=0.992;exitY=0.617;exitDx=0;exitDy=0;exitPerimeter=0;" edge="1" parent="1" source="-ugeKJobIYedR1QDNW9z-1" target="-ugeKJobIYedR1QDNW9z-2">
          <mxGeometry width="50" height="50" relative="1" as="geometry">
            <mxPoint x="400" y="260" as="sourcePoint" />
            <mxPoint x="450" y="210" as="targetPoint" />
          </mxGeometry>
        </mxCell>
        <mxCell id="-ugeKJobIYedR1QDNW9z-26" value="" style="endArrow=none;html=1;entryX=-0.022;entryY=0.633;entryDx=0;entryDy=0;entryPerimeter=0;exitX=1.017;exitY=0.65;exitDx=0;exitDy=0;exitPerimeter=0;" edge="1" parent="1" source="-ugeKJobIYedR1QDNW9z-1" target="-ugeKJobIYedR1QDNW9z-3">
          <mxGeometry width="50" height="50" relative="1" as="geometry">
            <mxPoint x="400" y="260" as="sourcePoint" />
            <mxPoint x="450" y="210" as="targetPoint" />
          </mxGeometry>
        </mxCell>
        <mxCell id="-ugeKJobIYedR1QDNW9z-27" value="" style="endArrow=none;html=1;exitX=1;exitY=0.75;exitDx=0;exitDy=0;" edge="1" parent="1" source="-ugeKJobIYedR1QDNW9z-1">
          <mxGeometry width="50" height="50" relative="1" as="geometry">
            <mxPoint x="400" y="260" as="sourcePoint" />
            <mxPoint x="510" y="340" as="targetPoint" />
          </mxGeometry>
        </mxCell>
        <mxCell id="-ugeKJobIYedR1QDNW9z-30" value="DB" style="shape=cylinder3;whiteSpace=wrap;html=1;boundedLbl=1;backgroundOutline=1;size=15;" vertex="1" parent="1">
          <mxGeometry x="700" y="70" width="60" height="60" as="geometry" />
        </mxCell>
        <mxCell id="-ugeKJobIYedR1QDNW9z-31" value="DB" style="shape=cylinder3;whiteSpace=wrap;html=1;boundedLbl=1;backgroundOutline=1;size=15;fontStyle=1" vertex="1" parent="1">
          <mxGeometry x="690" y="190" width="60" height="60" as="geometry" />
        </mxCell>
        <mxCell id="-ugeKJobIYedR1QDNW9z-32" value="DB" style="shape=cylinder3;whiteSpace=wrap;html=1;boundedLbl=1;backgroundOutline=1;size=15;" vertex="1" parent="1">
          <mxGeometry x="700" y="320" width="60" height="60" as="geometry" />
        </mxCell>
        <mxCell id="-ugeKJobIYedR1QDNW9z-37" style="edgeStyle=orthogonalEdgeStyle;rounded=0;orthogonalLoop=1;jettySize=auto;html=1;entryX=0;entryY=0.5;entryDx=0;entryDy=0;" edge="1" parent="1" source="-ugeKJobIYedR1QDNW9z-36" target="-ugeKJobIYedR1QDNW9z-5">
          <mxGeometry relative="1" as="geometry" />
        </mxCell>
        <mxCell id="-ugeKJobIYedR1QDNW9z-36" value="Internet" style="aspect=fixed;perimeter=ellipsePerimeter;html=1;align=center;shadow=0;dashed=0;spacingTop=3;image;image=img/lib/active_directory/internet_cloud.svg;" vertex="1" parent="1">
          <mxGeometry x="60" y="215" width="50" height="31.5" as="geometry" />
        </mxCell>
      </root>
    </mxGraphModel>
  </diagram>
</mxfile>
